<svg xmlns="http://www.w3.org/2000/svg" viewBox="0 0 32 32" width="32" height="32" role="img" aria-label="会话图谱">
  <!-- 会话图谱：左主干 + 两级分支，用 currentColor 跟随宿主主题 -->
  <g fill="none" stroke="currentColor" stroke-width="2" stroke-linecap="round" stroke-linejoin="round">
    <path d="M7 6v20"/>
    <path d="M7 11h6a2 2 0 0 1 2 2v8a2 2 0 0 0 2 2h6"/>
    <path d="M7 11h4v-4a2 2 0 0 1 2-2h8"/>
  </g>
  <g fill="currentColor">
    <rect x="4.5" y="4.5" width="5" height="4" rx="1.2"/>
    <rect x="4.5" y="10" width="5" height="4" rx="1.2"/>
    <rect x="4.5" y="24" width="5" height="4" rx="1.2"/>
    <rect x="23" y="4" width="6" height="4.5" rx="1.4"/>
    <rect x="23" y="21.5" width="6" height="4.5" rx="1.4"/>
  </g>
</svg>
